# xmcd
#
# Track frame offsets: 
#        150
#        3122
#        26632
#        47079
#        70354
#        84916
#        107433
#        126667
#        157451
#        171221
#        194643
#        214054
#        238701
#
# Disc length: 3538 seconds
#
# Revision: 0
# Processed by: cddbd v1.5.1PL2 Copyright (c) Steve Scherf et al.
# Submitted via: ExactAudioCopy v0.95b3
#
DISCID=b70dd00d
DTITLE=Tom Waits - An Evening with Tom Waits, Ryman Auditorium, 2006-0
DTITLE=8-05 CD1
DYEAR=2006
DGENRE=Alt. Rock
TTITLE0=Band Entry
TTITLE1=Make It Rain
TTITLE2=Hoist That Rag
TTITLE3=Shore Leave
TTITLE4=Gods Away On Business
TTITLE5=All The World Is Green
TTITLE6=Blue Valentine
TTITLE7=Down In The Hole
TTITLE8=Cemetery Polka
TTITLE9=Tom Traubert's Blues
TTITLE10=House Where Nobody Lives
TTITLE11='Who's Been Talkin' (Howlin Wolf) \\ 'Til The Money Runs Out
TTITLE12=Murder In The Red Barn
EXTD=
EXTT0=
EXTT1=
EXTT2=
EXTT3=
EXTT4=
EXTT5=
EXTT6=
EXTT7=
EXTT8=
EXTT9=
EXTT10=
EXTT11=
EXTT12=
PLAYORDER=
